{
	"asset":{
		"generator":"Khronos glTF Blender I/O v4.3.47",
		"version":"2.0"
	},
	"extensionsUsed":[
		"KHR_materials_unlit"
	],
	"scene":0,
	"scenes":[
		{
			"name":"Scene",
			"nodes":[
				0,
				1,
				15
			]
		}
	],
	"nodes":[
		{
			"mesh":0,
			"name":"FlowerPot",
			"translation":[
				0,
				1,
				0
			]
		},
		{
			"name":"GPencil",
			"translation":[
				0,
				1,
				0
			]
		},
		{
			"name":"Bone.004",
			"rotation":[
				1.2574753460725674e-09,
				1.3083597139029735e-07,
				-0.022709667682647705,
				0.9997420907020569
			],
			"scale":[
				1,
				1.0000001192092896,
				1
			],
			"translation":[
				0,
				1.899999976158142,
				0
			]
		},
		{
			"children":[
				2
			],
			"name":"Bone.003",
			"rotation":[
				-2.6692541510442425e-08,
				-2.6692541510442425e-08,
				-0.7071067690849304,
				0.7071067690849304
			],
			"translation":[
				0,
				2.0999999046325684,
				0
			]
		},
		{
			"name":"Bone.005",
			"translation":[
				0,
				2.0999999046325684,
				0
			]
		},
		{
			"name":"Bone.007",
			"rotation":[
				0.016386838629841805,
				-3.6517170024347173e-25,
				-3.6386086959431586e-18,
				0.9998657703399658
			],
			"scale":[
				1,
				1.0000001192092896,
				1.0000001192092896
			],
			"translation":[
				1.4992648602523627e-24,
				1.6895865201950073,
				3.129243850708008e-07
			]
		},
		{
			"children":[
				5
			],
			"name":"Bone.006",
			"rotation":[
				-0.7185990810394287,
				2.5728853247517825e-18,
				2.5728842907760168e-18,
				0.6954246759414673
			],
			"scale":[
				1,
				0.9999999403953552,
				0.9999999403953552
			],
			"translation":[
				0,
				2.0999999046325684,
				0
			]
		},
		{
			"name":"Bone.009",
			"rotation":[
				0.0035406509414315224,
				3.3171241343970766e-23,
				-7.86181250395472e-19,
				0.9999937415122986
			],
			"scale":[
				1,
				0.9999999403953552,
				0.9999999403953552
			],
			"translation":[
				-1.8280691537421912e-22,
				1.9197274446487427,
				1.4528632164001465e-07
			]
		},
		{
			"children":[
				7
			],
			"name":"Bone.008",
			"rotation":[
				0.7138722538948059,
				-1.5700200369655765e-16,
				-1.5700201693144745e-16,
				0.7002759575843811
			],
			"translation":[
				0,
				2.0999999046325684,
				0
			]
		},
		{
			"name":"Bone.011",
			"rotation":[
				3.951896143661315e-09,
				-4.9226837717242233e-08,
				0.03655073791742325,
				0.9993318319320679
			],
			"scale":[
				1,
				0.9999999403953552,
				1
			],
			"translation":[
				0,
				1.899999976158142,
				0
			]
		},
		{
			"children":[
				9
			],
			"name":"Bone.010",
			"rotation":[
				-2.6692541510442425e-08,
				2.6692541510442425e-08,
				0.7071067690849304,
				0.7071067690849304
			],
			"translation":[
				0,
				2.0999999046325684,
				0
			]
		},
		{
			"children":[
				3,
				4,
				6,
				8,
				10
			],
			"name":"Bone.002",
			"translation":[
				0,
				2,
				0
			]
		},
		{
			"children":[
				11
			],
			"name":"Bone.001",
			"translation":[
				0,
				2,
				0
			]
		},
		{
			"children":[
				12
			],
			"name":"Bone"
		},
		{
			"mesh":1,
			"name":"Plant",
			"skin":0
		},
		{
			"children":[
				14,
				13
			],
			"name":"Armature",
			"scale":[
				0.6000000238418579,
				0.6000000238418579,
				0.6000000238418579
			]
		}
	],
	"animations":[
		{
			"channels":[
				{
					"sampler":0,
					"target":{
						"node":13,
						"path":"translation"
					}
				},
				{
					"sampler":1,
					"target":{
						"node":13,
						"path":"rotation"
					}
				},
				{
					"sampler":2,
					"target":{
						"node":13,
						"path":"scale"
					}
				},
				{
					"sampler":3,
					"target":{
						"node":12,
						"path":"translation"
					}
				},
				{
					"sampler":4,
					"target":{
						"node":12,
						"path":"rotation"
					}
				},
				{
					"sampler":5,
					"target":{
						"node":12,
						"path":"scale"
					}
				},
				{
					"sampler":6,
					"target":{
						"node":11,
						"path":"translation"
					}
				},
				{
					"sampler":7,
					"target":{
						"node":11,
						"path":"rotation"
					}
				},
				{
					"sampler":8,
					"target":{
						"node":11,
						"path":"scale"
					}
				},
				{
					"sampler":9,
					"target":{
						"node":3,
						"path":"translation"
					}
				},
				{
					"sampler":10,
					"target":{
						"node":3,
						"path":"rotation"
					}
				},
				{
					"sampler":11,
					"target":{
						"node":3,
						"path":"scale"
					}
				},
				{
					"sampler":12,
					"target":{
						"node":2,
						"path":"translation"
					}
				},
				{
					"sampler":13,
					"target":{
						"node":2,
						"path":"rotation"
					}
				},
				{
					"sampler":14,
					"target":{
						"node":2,
						"path":"scale"
					}
				},
				{
					"sampler":15,
					"target":{
						"node":4,
						"path":"translation"
					}
				},
				{
					"sampler":16,
					"target":{
						"node":4,
						"path":"rotation"
					}
				},
				{
					"sampler":17,
					"target":{
						"node":4,
						"path":"scale"
					}
				},
				{
					"sampler":18,
					"target":{
						"node":6,
						"path":"translation"
					}
				},
				{
					"sampler":19,
					"target":{
						"node":6,
						"path":"rotation"
					}
				},
				{
					"sampler":20,
					"target":{
						"node":6,
						"path":"scale"
					}
				},
				{
					"sampler":21,
					"target":{
						"node":5,
						"path":"translation"
					}
				},
				{
					"sampler":22,
					"target":{
						"node":5,
						"path":"rotation"
					}
				},
				{
					"sampler":23,
					"target":{
						"node":5,
						"path":"scale"
					}
				},
				{
					"sampler":24,
					"target":{
						"node":8,
						"path":"translation"
					}
				},
				{
					"sampler":25,
					"target":{
						"node":8,
						"path":"rotation"
					}
				},
				{
					"sampler":26,
					"target":{
						"node":8,
						"path":"scale"
					}
				},
				{
					"sampler":27,
					"target":{
						"node":7,
						"path":"translation"
					}
				},
				{
					"sampler":28,
					"target":{
						"node":7,
						"path":"rotation"
					}
				},
				{
					"sampler":29,
					"target":{
						"node":7,
						"path":"scale"
					}
				},
				{
					"sampler":30,
					"target":{
						"node":10,
						"path":"translation"
					}
				},
				{
					"sampler":31,
					"target":{
						"node":10,
						"path":"rotation"
					}
				},
				{
					"sampler":32,
					"target":{
						"node":10,
						"path":"scale"
					}
				},
				{
					"sampler":33,
					"target":{
						"node":9,
						"path":"translation"
					}
				},
				{
					"sampler":34,
					"target":{
						"node":9,
						"path":"rotation"
					}
				},
				{
					"sampler":35,
					"target":{
						"node":9,
						"path":"scale"
					}
				}
			],
			"name":"boing",
			"samplers":[
				{
					"input":29,
					"interpolation":"STEP",
					"output":30
				},
				{
					"input":29,
					"interpolation":"STEP",
					"output":31
				},
				{
					"input":32,
					"interpolation":"LINEAR",
					"output":33
				},
				{
					"input":29,
					"interpolation":"STEP",
					"output":34
				},
				{
					"input":29,
					"interpolation":"STEP",
					"output":35
				},
				{
					"input":29,
					"interpolation":"STEP",
					"output":36
				},
				{
					"input":29,
					"interpolation":"STEP",
					"output":37
				},
				{
					"input":29,
					"interpolation":"STEP",
					"output":38
				},
				{
					"input":29,
					"interpolation":"STEP",
					"output":39
				},
				{
					"input":29,
					"interpolation":"STEP",
					"output":40
				},
				{
					"input":29,
					"interpolation":"STEP",
					"output":41
				},
				{
					"input":29,
					"interpolation":"STEP",
					"output":42
				},
				{
					"input":29,
					"interpolation":"STEP",
					"output":43
				},
				{
					"input":29,
					"interpolation":"STEP",
					"output":44
				},
				{
					"input":29,
					"interpolation":"STEP",
					"output":45
				},
				{
					"input":29,
					"interpolation":"STEP",
					"output":46
				},
				{
					"input":29,
					"interpolation":"STEP",
					"output":47
				},
				{
					"input":32,
					"interpolation":"LINEAR",
					"output":48
				},
				{
					"input":29,
					"interpolation":"STEP",
					"output":49
				},
				{
					"input":29,
					"interpolation":"STEP",
					"output":50
				},
				{
					"input":29,
					"interpolation":"STEP",
					"output":51
				},
				{
					"input":29,
					"interpolation":"STEP",
					"output":52
				},
				{
					"input":29,
					"interpolation":"STEP",
					"output":53
				},
				{
					"input":29,
					"interpolation":"STEP",
					"output":54
				},
				{
					"input":29,
					"interpolation":"STEP",
					"output":55
				},
				{
					"input":29,
					"interpolation":"STEP",
					"output":56
				},
				{
					"input":29,
					"interpolation":"STEP",
					"output":57
				},
				{
					"input":29,
					"interpolation":"STEP",
					"output":58
				},
				{
					"input":29,
					"interpolation":"STEP",
					"output":59
				},
				{
					"input":29,
					"interpolation":"STEP",
					"output":60
				},
				{
					"input":29,
					"interpolation":"STEP",
					"output":61
				},
				{
					"input":29,
					"interpolation":"STEP",
					"output":62
				},
				{
					"input":29,
					"interpolation":"STEP",
					"output":63
				},
				{
					"input":29,
					"interpolation":"STEP",
					"output":64
				},
				{
					"input":29,
					"interpolation":"STEP",
					"output":65
				},
				{
					"input":29,
					"interpolation":"STEP",
					"output":66
				}
			]
		}
	],
	"materials":[
		{
			"doubleSided":true,
			"extensions":{
				"KHR_materials_unlit":{}
			},
			"name":"FlowerPot",
			"pbrMetallicRoughness":{
				"metallicFactor":0,
				"roughnessFactor":0.9
			}
		},
		{
			"doubleSided":true,
			"extensions":{
				"KHR_materials_unlit":{}
			},
			"name":"Green",
			"pbrMetallicRoughness":{
				"metallicFactor":0,
				"roughnessFactor":0.9
			}
		},
		{
			"doubleSided":true,
			"extensions":{
				"KHR_materials_unlit":{}
			},
			"name":"Flower",
			"pbrMetallicRoughness":{
				"metallicFactor":0,
				"roughnessFactor":0.9
			}
		},
		{
			"doubleSided":true,
			"extensions":{
				"KHR_materials_unlit":{}
			},
			"name":"Violet",
			"pbrMetallicRoughness":{
				"metallicFactor":0,
				"roughnessFactor":0.9
			}
		},
		{
			"doubleSided":true,
			"extensions":{
				"KHR_materials_unlit":{}
			},
			"name":"Yellow",
			"pbrMetallicRoughness":{
				"metallicFactor":0,
				"roughnessFactor":0.9
			}
		}
	],
	"meshes":[
		{
			"name":"Mesh",
			"primitives":[
				{
					"attributes":{
						"POSITION":0,
						"NORMAL":1,
						"TEXCOORD_0":2
					},
					"indices":3,
					"material":0
				}
			]
		},
		{
			"name":"Mesh",
			"primitives":[
				{
					"attributes":{
						"POSITION":4,
						"NORMAL":5,
						"TEXCOORD_0":6,
						"JOINTS_0":7,
						"WEIGHTS_0":8
					},
					"indices":9,
					"material":1
				},
				{
					"attributes":{
						"POSITION":10,
						"NORMAL":11,
						"TEXCOORD_0":12,
						"JOINTS_0":13,
						"WEIGHTS_0":14
					},
					"indices":15,
					"material":2
				},
				{
					"attributes":{
						"POSITION":16,
						"NORMAL":17,
						"TEXCOORD_0":18,
						"JOINTS_0":19,
						"WEIGHTS_0":20
					},
					"indices":21,
					"material":3
				},
				{
					"attributes":{
						"POSITION":22,
						"NORMAL":23,
						"TEXCOORD_0":24,
						"JOINTS_0":25,
						"WEIGHTS_0":26
					},
					"indices":27,
					"material":4
				}
			]
		}
	],
	"skins":[
		{
			"inverseBindMatrices":28,
			"joints":[
				13,
				12,
				11,
				3,
				2,
				4,
				6,
				5,
				8,
				7,
				10,
				9
			],
			"name":"Armature"
		}
	],
	"accessors":[
		{
			"bufferView":0,
			"componentType":5126,
			"count":493,
			"max":[
				1.1592440605163574,
				1.0059964656829834,
				1.378666877746582
			],
			"min":[
				-1.1592439413070679,
				-1,
				-1.378666877746582
			],
			"type":"VEC3"
		},
		{
			"bufferView":1,
			"componentType":5126,
			"count":493,
			"type":"VEC3"
		},
		{
			"bufferView":2,
			"componentType":5126,
			"count":493,
			"type":"VEC2"
		},
		{
			"bufferView":3,
			"componentType":5123,
			"count":2064,
			"type":"SCALAR"
		},
		{
			"bufferView":4,
			"componentType":5126,
			"count":181,
			"max":[
				0.28600484132766724,
				5.399806976318359,
				1.6104724407196045
			],
			"min":[
				-0.28600484132766724,
				0.005210031755268574,
				-0.34266960620880127
			],
			"type":"VEC3"
		},
		{
			"bufferView":5,
			"componentType":5126,
			"count":181,
			"type":"VEC3"
		},
		{
			"bufferView":6,
			"componentType":5126,
			"count":181,
			"type":"VEC2"
		},
		{
			"bufferView":7,
			"componentType":5121,
			"count":181,
			"type":"VEC4"
		},
		{
			"bufferView":8,
			"componentType":5126,
			"count":181,
			"type":"VEC4"
		},
		{
			"bufferView":9,
			"componentType":5123,
			"count":816,
			"type":"SCALAR"
		},
		{
			"bufferView":10,
			"componentType":5126,
			"count":2572,
			"max":[
				2.87100887298584,
				5.399806976318359,
				2.8109798431396484
			],
			"min":[
				-2.87100887298584,
				3.593836784362793,
				-2.820000648498535
			],
			"type":"VEC3"
		},
		{
			"bufferView":11,
			"componentType":5126,
			"count":2572,
			"type":"VEC3"
		},
		{
			"bufferView":12,
			"componentType":5126,
			"count":2572,
			"type":"VEC2"
		},
		{
			"bufferView":13,
			"componentType":5121,
			"count":2572,
			"type":"VEC4"
		},
		{
			"bufferView":14,
			"componentType":5126,
			"count":2572,
			"type":"VEC4"
		},
		{
			"bufferView":15,
			"componentType":5123,
			"count":13632,
			"type":"SCALAR"
		},
		{
			"bufferView":16,
			"componentType":5126,
			"count":329,
			"max":[
				8.940696516468449e-10,
				5.399806976318359,
				1.5048691034317017
			],
			"min":[
				-1.3369673490524292,
				5.036584854125977,
				-1.5048691034317017
			],
			"type":"VEC3"
		},
		{
			"bufferView":17,
			"componentType":5126,
			"count":329,
			"type":"VEC3"
		},
		{
			"bufferView":18,
			"componentType":5126,
			"count":329,
			"type":"VEC2"
		},
		{
			"bufferView":19,
			"componentType":5121,
			"count":329,
			"type":"VEC4"
		},
		{
			"bufferView":20,
			"componentType":5126,
			"count":329,
			"type":"VEC4"
		},
		{
			"bufferView":21,
			"componentType":5123,
			"count":1536,
			"type":"SCALAR"
		},
		{
			"bufferView":22,
			"componentType":5126,
			"count":336,
			"max":[
				1.175231695175171,
				5.399806976318359,
				0.6887840628623962
			],
			"min":[
				-0.6419625878334045,
				3.6000001430511475,
				-0.6888366341590881
			],
			"type":"VEC3"
		},
		{
			"bufferView":23,
			"componentType":5126,
			"count":336,
			"type":"VEC3"
		},
		{
			"bufferView":24,
			"componentType":5126,
			"count":336,
			"type":"VEC2"
		},
		{
			"bufferView":25,
			"componentType":5121,
			"count":336,
			"type":"VEC4"
		},
		{
			"bufferView":26,
			"componentType":5126,
			"count":336,
			"type":"VEC4"
		},
		{
			"bufferView":27,
			"componentType":5123,
			"count":1584,
			"type":"SCALAR"
		},
		{
			"bufferView":28,
			"componentType":5126,
			"count":12,
			"type":"MAT4"
		},
		{
			"bufferView":29,
			"componentType":5126,
			"count":2,
			"max":[
				1.2916666666666667
			],
			"min":[
				0
			],
			"type":"SCALAR"
		},
		{
			"bufferView":30,
			"componentType":5126,
			"count":2,
			"type":"VEC3"
		},
		{
			"bufferView":31,
			"componentType":5126,
			"count":2,
			"type":"VEC4"
		},
		{
			"bufferView":32,
			"componentType":5126,
			"count":32,
			"max":[
				1.2916666666666667
			],
			"min":[
				0
			],
			"type":"SCALAR"
		},
		{
			"bufferView":33,
			"componentType":5126,
			"count":32,
			"type":"VEC3"
		},
		{
			"bufferView":34,
			"componentType":5126,
			"count":2,
			"type":"VEC3"
		},
		{
			"bufferView":35,
			"componentType":5126,
			"count":2,
			"type":"VEC4"
		},
		{
			"bufferView":36,
			"componentType":5126,
			"count":2,
			"type":"VEC3"
		},
		{
			"bufferView":37,
			"componentType":5126,
			"count":2,
			"type":"VEC3"
		},
		{
			"bufferView":38,
			"componentType":5126,
			"count":2,
			"type":"VEC4"
		},
		{
			"bufferView":39,
			"componentType":5126,
			"count":2,
			"type":"VEC3"
		},
		{
			"bufferView":40,
			"componentType":5126,
			"count":2,
			"type":"VEC3"
		},
		{
			"bufferView":41,
			"componentType":5126,
			"count":2,
			"type":"VEC4"
		},
		{
			"bufferView":42,
			"componentType":5126,
			"count":2,
			"type":"VEC3"
		},
		{
			"bufferView":43,
			"componentType":5126,
			"count":2,
			"type":"VEC3"
		},
		{
			"bufferView":44,
			"componentType":5126,
			"count":2,
			"type":"VEC4"
		},
		{
			"bufferView":45,
			"componentType":5126,
			"count":2,
			"type":"VEC3"
		},
		{
			"bufferView":46,
			"componentType":5126,
			"count":2,
			"type":"VEC3"
		},
		{
			"bufferView":47,
			"componentType":5126,
			"count":2,
			"type":"VEC4"
		},
		{
			"bufferView":48,
			"componentType":5126,
			"count":32,
			"type":"VEC3"
		},
		{
			"bufferView":49,
			"componentType":5126,
			"count":2,
			"type":"VEC3"
		},
		{
			"bufferView":50,
			"componentType":5126,
			"count":2,
			"type":"VEC4"
		},
		{
			"bufferView":51,
			"componentType":5126,
			"count":2,
			"type":"VEC3"
		},
		{
			"bufferView":52,
			"componentType":5126,
			"count":2,
			"type":"VEC3"
		},
		{
			"bufferView":53,
			"componentType":5126,
			"count":2,
			"type":"VEC4"
		},
		{
			"bufferView":54,
			"componentType":5126,
			"count":2,
			"type":"VEC3"
		},
		{
			"bufferView":55,
			"componentType":5126,
			"count":2,
			"type":"VEC3"
		},
		{
			"bufferView":56,
			"componentType":5126,
			"count":2,
			"type":"VEC4"
		},
		{
			"bufferView":57,
			"componentType":5126,
			"count":2,
			"type":"VEC3"
		},
		{
			"bufferView":58,
			"componentType":5126,
			"count":2,
			"type":"VEC3"
		},
		{
			"bufferView":59,
			"componentType":5126,
			"count":2,
			"type":"VEC4"
		},
		{
			"bufferView":60,
			"componentType":5126,
			"count":2,
			"type":"VEC3"
		},
		{
			"bufferView":61,
			"componentType":5126,
			"count":2,
			"type":"VEC3"
		},
		{
			"bufferView":62,
			"componentType":5126,
			"count":2,
			"type":"VEC4"
		},
		{
			"bufferView":63,
			"componentType":5126,
			"count":2,
			"type":"VEC3"
		},
		{
			"bufferView":64,
			"componentType":5126,
			"count":2,
			"type":"VEC3"
		},
		{
			"bufferView":65,
			"componentType":5126,
			"count":2,
			"type":"VEC4"
		},
		{
			"bufferView":66,
			"componentType":5126,
			"count":2,
			"type":"VEC3"
		}
	],
	"bufferViews":[
		{
			"buffer":0,
			"byteLength":5916,
			"byteOffset":0,
			"target":34962
		},
		{
			"buffer":0,
			"byteLength":5916,
			"byteOffset":5916,
			"target":34962
		},
		{
			"buffer":0,
			"byteLength":3944,
			"byteOffset":11832,
			"target":34962
		},
		{
			"buffer":0,
			"byteLength":4128,
			"byteOffset":15776,
			"target":34963
		},
		{
			"buffer":0,
			"byteLength":2172,
			"byteOffset":19904,
			"target":34962
		},
		{
			"buffer":0,
			"byteLength":2172,
			"byteOffset":22076,
			"target":34962
		},
		{
			"buffer":0,
			"byteLength":1448,
			"byteOffset":24248,
			"target":34962
		},
		{
			"buffer":0,
			"byteLength":724,
			"byteOffset":25696,
			"target":34962
		},
		{
			"buffer":0,
			"byteLength":2896,
			"byteOffset":26420,
			"target":34962
		},
		{
			"buffer":0,
			"byteLength":1632,
			"byteOffset":29316,
			"target":34963
		},
		{
			"buffer":0,
			"byteLength":30864,
			"byteOffset":30948,
			"target":34962
		},
		{
			"buffer":0,
			"byteLength":30864,
			"byteOffset":61812,
			"target":34962
		},
		{
			"buffer":0,
			"byteLength":20576,
			"byteOffset":92676,
			"target":34962
		},
		{
			"buffer":0,
			"byteLength":10288,
			"byteOffset":113252,
			"target":34962
		},
		{
			"buffer":0,
			"byteLength":41152,
			"byteOffset":123540,
			"target":34962
		},
		{
			"buffer":0,
			"byteLength":27264,
			"byteOffset":164692,
			"target":34963
		},
		{
			"buffer":0,
			"byteLength":3948,
			"byteOffset":191956,
			"target":34962
		},
		{
			"buffer":0,
			"byteLength":3948,
			"byteOffset":195904,
			"target":34962
		},
		{
			"buffer":0,
			"byteLength":2632,
			"byteOffset":199852,
			"target":34962
		},
		{
			"buffer":0,
			"byteLength":1316,
			"byteOffset":202484,
			"target":34962
		},
		{
			"buffer":0,
			"byteLength":5264,
			"byteOffset":203800,
			"target":34962
		},
		{
			"buffer":0,
			"byteLength":3072,
			"byteOffset":209064,
			"target":34963
		},
		{
			"buffer":0,
			"byteLength":4032,
			"byteOffset":212136,
			"target":34962
		},
		{
			"buffer":0,
			"byteLength":4032,
			"byteOffset":216168,
			"target":34962
		},
		{
			"buffer":0,
			"byteLength":2688,
			"byteOffset":220200,
			"target":34962
		},
		{
			"buffer":0,
			"byteLength":1344,
			"byteOffset":222888,
			"target":34962
		},
		{
			"buffer":0,
			"byteLength":5376,
			"byteOffset":224232,
			"target":34962
		},
		{
			"buffer":0,
			"byteLength":3168,
			"byteOffset":229608,
			"target":34963
		},
		{
			"buffer":0,
			"byteLength":768,
			"byteOffset":232776
		},
		{
			"buffer":0,
			"byteLength":8,
			"byteOffset":233544
		},
		{
			"buffer":0,
			"byteLength":24,
			"byteOffset":233552
		},
		{
			"buffer":0,
			"byteLength":32,
			"byteOffset":233576
		},
		{
			"buffer":0,
			"byteLength":128,
			"byteOffset":233608
		},
		{
			"buffer":0,
			"byteLength":384,
			"byteOffset":233736
		},
		{
			"buffer":0,
			"byteLength":24,
			"byteOffset":234120
		},
		{
			"buffer":0,
			"byteLength":32,
			"byteOffset":234144
		},
		{
			"buffer":0,
			"byteLength":24,
			"byteOffset":234176
		},
		{
			"buffer":0,
			"byteLength":24,
			"byteOffset":234200
		},
		{
			"buffer":0,
			"byteLength":32,
			"byteOffset":234224
		},
		{
			"buffer":0,
			"byteLength":24,
			"byteOffset":234256
		},
		{
			"buffer":0,
			"byteLength":24,
			"byteOffset":234280
		},
		{
			"buffer":0,
			"byteLength":32,
			"byteOffset":234304
		},
		{
			"buffer":0,
			"byteLength":24,
			"byteOffset":234336
		},
		{
			"buffer":0,
			"byteLength":24,
			"byteOffset":234360
		},
		{
			"buffer":0,
			"byteLength":32,
			"byteOffset":234384
		},
		{
			"buffer":0,
			"byteLength":24,
			"byteOffset":234416
		},
		{
			"buffer":0,
			"byteLength":24,
			"byteOffset":234440
		},
		{
			"buffer":0,
			"byteLength":32,
			"byteOffset":234464
		},
		{
			"buffer":0,
			"byteLength":384,
			"byteOffset":234496
		},
		{
			"buffer":0,
			"byteLength":24,
			"byteOffset":234880
		},
		{
			"buffer":0,
			"byteLength":32,
			"byteOffset":234904
		},
		{
			"buffer":0,
			"byteLength":24,
			"byteOffset":234936
		},
		{
			"buffer":0,
			"byteLength":24,
			"byteOffset":234960
		},
		{
			"buffer":0,
			"byteLength":32,
			"byteOffset":234984
		},
		{
			"buffer":0,
			"byteLength":24,
			"byteOffset":235016
		},
		{
			"buffer":0,
			"byteLength":24,
			"byteOffset":235040
		},
		{
			"buffer":0,
			"byteLength":32,
			"byteOffset":235064
		},
		{
			"buffer":0,
			"byteLength":24,
			"byteOffset":235096
		},
		{
			"buffer":0,
			"byteLength":24,
			"byteOffset":235120
		},
		{
			"buffer":0,
			"byteLength":32,
			"byteOffset":235144
		},
		{
			"buffer":0,
			"byteLength":24,
			"byteOffset":235176
		},
		{
			"buffer":0,
			"byteLength":24,
			"byteOffset":235200
		},
		{
			"buffer":0,
			"byteLength":32,
			"byteOffset":235224
		},
		{
			"buffer":0,
			"byteLength":24,
			"byteOffset":235256
		},
		{
			"buffer":0,
			"byteLength":24,
			"byteOffset":235280
		},
		{
			"buffer":0,
			"byteLength":32,
			"byteOffset":235304
		},
		{
			"buffer":0,
			"byteLength":24,
			"byteOffset":235336
		}
	],
	"buffers":[
		{
			"byteLength":235360,
			"uri":"flower.bin"
		}
	]
}
